<svg width="14" height="16" viewBox="0 0 14 16" fill="none" xmlns="http://www.w3.org/2000/svg">
<path d="M7.00002 0.5C5.7574 0.5 4.75002 1.50738 4.75002 2.75C4.75002 3.99262 5.7574 5 7.00002 5C8.24265 5 9.25002 3.99262 9.25002 2.75C9.25002 1.50738 8.24265 0.5 7.00002 0.5ZM7.00002 2C7.41424 2 7.75002 2.33578 7.75002 2.75C7.75002 3.16422 7.41424 3.5 7.00002 3.5C6.5858 3.5 6.25002 3.16422 6.25002 2.75C6.25002 2.33578 6.5858 2 7.00002 2ZM2.40533 3.125C1.64552 3.14203 0.912645 3.54375 0.504895 4.25C-0.116417 5.32616 0.251989 6.70194 1.32815 7.32325C2.4043 7.94456 3.78105 7.57616 4.40236 6.5C5.02368 5.42384 4.6543 4.04806 3.57815 3.42675C3.20821 3.21319 2.80327 3.11612 2.40533 3.125ZM11.4863 3.125C11.1236 3.13438 10.7582 3.23259 10.4219 3.42675C9.34574 4.04806 8.97636 5.42384 9.59768 6.5C10.219 7.57616 11.5957 7.94456 12.6719 7.32325C13.7481 6.70194 14.1165 5.32616 13.4951 4.25C13.068 3.51016 12.2842 3.10428 11.4863 3.125ZM2.43752 4.625C2.57018 4.62203 2.70483 4.65438 2.82815 4.72563C3.1869 4.93269 3.30971 5.39125 3.10252 5.75C2.89546 6.10875 2.4369 6.23156 2.07815 6.02437C1.7194 5.81731 1.59658 5.35875 1.80377 5C1.93965 4.76459 2.18427 4.63069 2.43752 4.625ZM11.5264 4.625C11.7923 4.61813 12.0539 4.75337 12.1963 5C12.4035 5.35875 12.2807 5.81731 11.9219 6.02437C11.5632 6.23156 11.1046 6.10875 10.8976 5.75C10.6904 5.39125 10.8132 4.93269 11.1719 4.72563C11.2798 4.66293 11.4017 4.62833 11.5264 4.625ZM7.04396 6.50094C6.84339 6.49506 6.64368 6.52948 6.45665 6.60217C6.26962 6.67486 6.09908 6.78433 5.95512 6.92411C5.81115 7.06389 5.6967 7.23113 5.61853 7.41593C5.54036 7.60074 5.50006 7.79934 5.50002 8C5.50002 8.39782 5.65806 8.77936 5.93936 9.06066C6.22066 9.34196 6.6022 9.5 7.00002 9.5C7.39785 9.5 7.77938 9.34196 8.06068 9.06066C8.34199 8.77936 8.50002 8.39782 8.50002 8C8.49994 7.60983 8.34785 7.23505 8.076 6.95518C7.80416 6.6753 7.43396 6.51237 7.04396 6.50094ZM2.39258 8.375C2.0299 8.38438 1.66446 8.48259 1.32815 8.67675C0.251989 9.29806 -0.116417 10.6738 0.504895 11.75C1.12621 12.8262 2.50199 13.1946 3.57815 12.5732C4.6543 11.9519 5.02368 10.5762 4.40236 9.5C3.97518 8.76016 3.19049 8.35428 2.39258 8.375ZM11.4981 8.375C10.7383 8.39203 10.0054 8.79375 9.59768 9.5C8.97636 10.5762 9.34574 11.9519 10.4219 12.5732C11.4981 13.1946 12.8738 12.8262 13.4951 11.75C14.1165 10.6738 13.7481 9.29806 12.6719 8.67675C12.302 8.46319 11.8961 8.36612 11.4981 8.375ZM2.43361 9.875C2.69955 9.86813 2.96018 10.0034 3.10255 10.25C3.30974 10.6087 3.18693 11.0673 2.82818 11.2744C2.46943 11.4816 2.01086 11.3587 1.8038 11C1.59661 10.6413 1.71943 10.1827 2.07818 9.97563C2.1864 9.91292 2.30858 9.87832 2.43361 9.875ZM11.5303 9.875C11.6629 9.87203 11.7986 9.90438 11.9219 9.97563C12.2806 10.1827 12.4034 10.6413 12.1962 11C11.9892 11.3587 11.5306 11.4816 11.1719 11.2744C10.8131 11.0673 10.6903 10.6087 10.8975 10.25C11.0334 10.0146 11.277 9.88069 11.5303 9.875ZM7.00002 11C5.7574 11 4.75002 12.0074 4.75002 13.25C4.75002 14.4926 5.7574 15.5 7.00002 15.5C8.24265 15.5 9.25002 14.4926 9.25002 13.25C9.25002 12.0074 8.24265 11 7.00002 11ZM7.00002 12.5C7.41424 12.5 7.75002 12.8358 7.75002 13.25C7.75002 13.6642 7.41424 14 7.00002 14C6.5858 14 6.25002 13.6642 6.25002 13.25C6.25002 12.8358 6.5858 12.5 7.00002 12.5Z" fill="white"/>
</svg>
