<svg width="24" height="24" viewBox="0 0 24 24" fill="none" xmlns="http://www.w3.org/2000/svg">
<path fill-rule="evenodd" clip-rule="evenodd" d="M12 22C17.523 22 22 17.523 22 12C22 6.477 17.523 2 12 2C6.477 2 2 6.477 2 12C2 17.523 6.477 22 12 22ZM15.935 5.592C16.073 5.64822 16.1911 5.74425 16.2742 5.86785C16.3574 5.99145 16.4019 6.13702 16.402 6.286V9.001C16.402 9.19991 16.323 9.39068 16.1823 9.53133C16.0417 9.67198 15.8509 9.751 15.652 9.751H13C12.8524 9.75108 12.708 9.7076 12.585 9.62601C12.462 9.54441 12.3658 9.42833 12.3085 9.29231C12.2511 9.15629 12.2352 9.00637 12.2627 8.86134C12.2902 8.7163 12.3599 8.58261 12.463 8.477L13.225 7.697C12.489 7.47087 11.7048 7.45292 10.9592 7.64514C10.2137 7.83735 9.53591 8.23222 9.001 8.786C7.333 10.493 7.333 13.269 9.001 14.976C9.38989 15.3785 9.85584 15.6987 10.3711 15.9173C10.8863 16.1359 11.4403 16.2486 12 16.2486C12.5597 16.2486 13.1137 16.1359 13.6289 15.9173C14.1442 15.6987 14.6101 15.3785 14.999 14.976C15.6556 14.3023 16.0789 13.4359 16.207 12.504C16.265 12.086 16.597 11.734 17.019 11.734C17.425 11.734 17.761 12.059 17.722 12.463C17.5947 13.8039 17.0125 15.0608 16.072 16.025C15.5434 16.5705 14.9105 17.0043 14.211 17.3005C13.5115 17.5968 12.7596 17.7494 12 17.7494C11.2404 17.7494 10.4885 17.5968 9.78896 17.3005C9.08946 17.0043 8.45661 16.5705 7.928 16.025C5.691 13.735 5.691 10.028 7.928 7.738C8.7442 6.89555 9.80158 6.32697 10.9544 6.11062C12.1073 5.89426 13.2989 6.04079 14.365 6.53L15.115 5.762C15.2193 5.65533 15.353 5.58218 15.4991 5.55189C15.6451 5.52161 15.7969 5.53558 15.935 5.592Z" fill="white"/>
</svg>
