<svg width="15" height="10" viewBox="0 0 15 10" fill="none" xmlns="http://www.w3.org/2000/svg">
<path d="M14.3285 9.32857C14.7034 8.95352 14.9141 8.4449 14.9141 7.91457C14.9141 7.38424 14.7034 6.87563 14.3285 6.50057L7.91449 0.0855714L1.50049 6.50057C1.10949 6.89057 0.91449 7.40257 0.91449 7.91457C0.91449 8.42657 1.10949 8.93857 1.50049 9.32857C1.87555 9.70351 2.38416 9.91414 2.91449 9.91414C3.44482 9.91414 3.95343 9.70351 4.32849 9.32857L7.91449 5.74357L11.5005 9.32857C11.8755 9.70351 12.3842 9.91414 12.9145 9.91414C13.4448 9.91414 13.9534 9.70351 14.3285 9.32857Z" fill="white"/>
</svg>
