<svg width="10" height="14" viewBox="0 0 10 14" fill="none" xmlns="http://www.w3.org/2000/svg">
<path d="M9.243 0.585573C8.86794 0.210631 8.35933 0 7.829 0C7.29867 0 6.79006 0.210631 6.415 0.585573L0 6.99957L6.415 13.4136C6.805 13.8046 7.317 13.9996 7.829 13.9996C8.341 13.9996 8.853 13.8046 9.243 13.4136C9.61794 13.0385 9.82857 12.5299 9.82857 11.9996C9.82857 11.4692 9.61794 10.9606 9.243 10.5856L5.658 6.99957L9.243 3.41357C9.61794 3.03852 9.82857 2.5299 9.82857 1.99957C9.82857 1.46924 9.61794 0.960628 9.243 0.585573Z" fill="white"/>
</svg>
