<svg width="10" height="14" viewBox="0 0 10 14" fill="none" xmlns="http://www.w3.org/2000/svg">
<path d="M0.585613 13.4141C0.960669 13.789 1.46928 13.9996 1.99961 13.9996C2.52994 13.9996 3.03856 13.789 3.41361 13.4141L9.82861 7.00006L3.41361 0.586061C3.02361 0.195061 2.51161 6.03955e-05 1.99961 6.03507e-05C1.48761 6.0306e-05 0.975614 0.195061 0.585614 0.586061C0.210672 0.961116 4.11497e-05 1.46973 4.11034e-05 2.00006C4.1057e-05 2.53039 0.210672 3.039 0.585614 3.41406L4.17061 7.00006L0.585614 10.5861C0.210671 10.9611 4.02755e-05 11.4697 4.02291e-05 12.0001C4.01828e-05 12.5304 0.210671 13.039 0.585613 13.4141Z" fill="white"/>
</svg>
